<svg width="96" height="64" viewBox="0 0 96 64" fill="none" xmlns="http://www.w3.org/2000/svg">
<g id="Company Logo">
<g id="Group">
<path id="Vector" d="M74.7302 53.3154C71.7777 53.3154 70.0265 51.8045 69.8925 49.6282H72.7156C72.7156 50.3536 73.1176 51.3193 74.8642 51.3794C76.0748 51.3794 76.7448 50.654 76.7448 50.1087C76.6108 49.2632 75.5342 49.203 74.4623 49.0182C73.4935 48.9037 72.5441 48.6613 71.6391 48.2973C71.1789 48.0397 70.7979 47.6613 70.5373 47.2028C70.2766 46.7443 70.1464 46.2232 70.1605 45.696C70.1605 43.76 71.7777 42.249 74.5962 42.249C77.2854 42.249 79.032 43.6398 79.1614 45.7561H76.4768C76.4768 45.2155 76.3428 44.3052 74.7302 44.3052C73.6536 44.3052 72.9837 44.4853 72.8497 45.2708C72.8497 46.3613 75.1322 46.3014 76.8788 46.7218C78.4914 47.1469 79.568 48.1727 79.568 49.6282C79.568 52.2896 77.4194 53.3154 74.7302 53.3154Z" fill="black"/>
</g>
<path id="Vector_2" d="M23.2845 35.4586L32.5535 30.0756L37.5254 38.6054H25.0313" fill="black"/>
<g id="Vector_3">
<path d="M42.7759 52.9939V42.2279V52.9939Z" fill="black"/>
<path d="M42.7759 52.9939V42.2279" stroke="black" stroke-width="2.71238"/>
</g>
<g id="Group_2">
<path id="Vector_4" d="M18.9828 47.7709C18.9828 49.462 20.4614 50.8528 22.0694 50.8528C23.8206 50.8528 25.1606 49.462 25.1606 47.7709C25.1606 46.1398 23.8206 44.689 22.0694 44.689C21.2603 44.7165 20.4919 45.0499 19.919 45.6219C19.3462 46.1939 19.0116 46.9619 18.9828 47.7709ZM21.9354 53.3341C18.9828 53.3341 16.4323 50.8528 16.4323 47.7709C16.4323 44.6889 18.9828 42.2677 21.9354 42.2677C23.146 42.2677 24.2226 42.5727 25.1606 43.2335V42.3878H27.8497V53.0892H25.1606V52.4238C24.3566 53.029 23.146 53.3341 21.9354 53.3341Z" fill="black"/>
</g>
<path id="Vector_5" d="M57.811 38.6027L44.9148 16.1097L54.184 10.6666L70.3052 38.6027" fill="black"/>
<g id="Group_3">
<path id="Vector_6" d="M31.3428 47.7704C31.3428 49.4615 32.6874 50.8523 34.434 50.8523C36.042 50.8523 37.5252 49.4615 37.5252 47.7704C37.4952 46.961 37.1597 46.193 36.5861 45.6211C36.0125 45.0492 35.2435 44.716 34.434 44.6885C33.6169 44.6921 32.8341 45.0177 32.2555 45.5946C31.6768 46.1715 31.3489 46.9533 31.3428 47.7704ZM34.3 53.3336C33.5717 53.3349 32.8504 53.1914 32.1779 52.9116C31.5055 52.6318 30.8953 52.2211 30.3829 51.7036C29.8705 51.186 29.466 50.5717 29.193 49.8965C28.9199 49.2213 28.7837 48.4987 28.7923 47.7704C28.7923 44.6885 31.2088 42.2672 34.3 42.2672C35.506 42.2672 36.5826 42.5722 37.5252 43.233V38.7001H40.2097V53.0887H37.5252V52.4233C36.562 53.035 35.4409 53.3515 34.3 53.3336Z" fill="black"/>
</g>
<path id="Vector_7" d="M34.1674 25.8447L43.5706 20.5265L53.9158 38.6023H44.1064V41.2637H41.4218V38.6023" fill="black"/>
<g id="Group_4">
<path id="Vector_8" d="M77.826 41.348C77.475 41.3377 77.141 41.1947 76.8915 40.9477C76.6419 40.7007 76.4953 40.3681 76.4814 40.0173C76.4953 39.6664 76.6419 39.3339 76.8915 39.0869C77.141 38.8399 77.475 38.6968 77.826 38.6866C78.0028 38.6815 78.1788 38.7125 78.3433 38.7774C78.5078 38.8423 78.6573 38.9398 78.783 39.0642C78.9087 39.1886 79.0079 39.3372 79.0745 39.501C79.1411 39.6649 79.1738 39.8405 79.1706 40.0173C79.1738 40.1941 79.1411 40.3697 79.0745 40.5335C79.0079 40.6973 78.9087 40.846 78.783 40.9704C78.6573 41.0948 78.5078 41.1924 78.3433 41.2573C78.1788 41.3222 78.0028 41.353 77.826 41.348ZM77.826 38.8714C77.1514 38.8714 76.7494 39.412 76.7494 40.0173C76.7494 40.6226 77.1514 41.1678 77.826 41.1678C78.496 41.1678 78.898 40.6226 78.898 40.0173C78.898 39.412 78.496 38.8714 77.826 38.8714Z" fill="black"/>
<path id="Vector_9" d="M78.1032 40.7473L77.8353 40.142H77.5673V40.7473H77.364V39.2963H77.9692C78.1032 39.2963 78.3713 39.4812 78.3713 39.7215C78.3759 39.8107 78.3525 39.8992 78.3045 39.9746C78.2564 40.05 78.1861 40.1085 78.1032 40.142L78.3713 40.7473M77.8353 39.4812H77.5673V39.9618H77.8353C78.1032 39.9618 78.1032 39.9017 78.1032 39.7215C78.1032 39.5967 78.1032 39.4812 77.8353 39.4812ZM60.083 47.7706C60.083 49.4617 61.4275 50.8525 63.1741 50.8525C64.7867 50.8525 66.2607 49.4617 66.2607 47.7706C66.233 46.9612 65.8988 46.1925 65.3257 45.6203C64.7526 45.0481 63.9835 44.7152 63.1741 44.6887C62.357 44.6923 61.5743 45.0179 60.9956 45.5948C60.4169 46.1717 60.089 46.9535 60.083 47.7706ZM63.0355 53.3338C62.3076 53.3345 61.5867 53.1906 60.9148 52.9105C60.2429 52.6304 59.6333 52.2196 59.1214 51.7021C58.6095 51.1845 58.2054 50.5706 57.9326 49.8957C57.6599 49.2208 57.5238 48.4985 57.5324 47.7706C57.5324 44.6886 59.949 42.2674 63.0355 42.2674C64.2461 42.2674 65.3227 42.5724 66.2607 43.2332V42.3876H68.8159V53.0889H66.2607V52.4235C65.2981 53.0364 64.1766 53.3531 63.0355 53.3338ZM47.7321 47.7706C47.7321 49.4617 49.2107 50.8525 50.8233 50.8525C52.5698 50.8525 53.9144 49.4617 53.9144 47.7706C53.9084 46.9535 53.5804 46.1717 53.0018 45.5948C52.4231 45.0179 51.6404 44.6923 50.8233 44.6887C50.0134 44.7151 49.2438 45.0479 48.67 45.62C48.0962 46.1922 47.7609 46.9608 47.7321 47.7706ZM53.9144 38.7003H56.599V53.0889H53.9144V52.4235C53.009 53.052 51.9248 53.3714 50.8233 53.3338C47.7321 53.3338 45.1815 50.8525 45.1815 47.7706C45.1815 44.6886 47.7321 42.2674 50.8233 42.2674C52.0292 42.2674 53.1058 42.5724 53.9144 43.2332V38.7003Z" fill="black"/>
</g>
</g>
</svg>
