<svg width="97" height="64" viewBox="0 0 97 64" fill="none" xmlns="http://www.w3.org/2000/svg">
<g id="Company Logo">
<path id="Vector" d="M54.4076 32.5688C54.4076 30.8202 53.6591 29.2752 51.1276 29.2752C49.8288 29.2752 48.7971 29.6454 48.2377 29.9694L48.6477 31.3723C49.1627 31.0492 49.9845 30.783 50.7601 30.783C52.0417 30.7812 52.2517 31.5062 52.2517 31.9723V32.0846C49.4541 32.08 47.6856 33.0467 47.6856 35.0152C47.6856 36.218 48.5834 37.3457 50.1529 37.3457C51.1104 37.3457 51.9195 36.9593 52.4028 36.3493H52.4499C52.4499 36.3493 52.7685 37.6825 54.5307 37.1729C54.4411 36.6145 54.4076 36.0262 54.4076 35.3111V32.5688ZM52.3205 34.4151C52.3205 34.5563 52.3087 34.703 52.2671 34.8288C52.106 35.3673 51.5503 35.818 50.8588 35.818C50.2751 35.818 49.817 35.4876 49.817 34.7952C49.817 33.7363 50.9864 33.4449 52.3205 33.4521M11.5768 26.896C11.5768 26.896 13.4041 34.3719 13.6947 35.5829C14.0367 36.9985 14.6495 37.5216 16.418 37.1732L17.5602 32.5374C17.8489 31.3888 18.0453 30.5652 18.2318 29.3949H18.2634C18.3929 30.577 18.5793 31.3888 18.8155 32.541C18.8155 32.541 19.2817 34.6471 19.5234 35.7504C19.7586 36.8537 20.4211 37.5497 22.1562 37.1732L24.8751 26.896H22.6802L21.7471 31.3418C21.5 32.6297 21.2755 33.6443 21.1009 34.8245H21.0692C20.9117 33.6569 20.7117 32.684 20.4546 31.4223L19.488 26.896H17.1982L16.1664 31.3065C15.8722 32.6532 15.5971 33.733 15.4242 34.8761H15.3944C15.2161 33.8036 14.9744 32.4378 14.7183 31.1417C14.7183 31.1417 14.1055 27.9839 13.8892 26.896M30.9916 32.5688C30.9916 30.8202 30.2412 29.2752 27.7098 29.2752C26.4146 29.2752 25.381 29.6454 24.8217 29.9694L25.2317 31.3723C25.7449 31.0492 26.5658 30.783 27.3441 30.783C28.6257 30.7812 28.8357 31.5062 28.8357 31.9723V32.0846C26.0381 32.08 24.2678 33.0467 24.2678 35.0152C24.2678 36.218 25.1693 37.3457 26.7314 37.3457C27.698 37.3457 28.4999 36.9593 28.9832 36.3493H29.0321C29.0321 36.3493 29.3525 37.6825 31.1128 37.1729C31.0224 36.6145 30.9916 36.0262 30.9916 35.3111V32.5688ZM28.9027 34.4151C28.9027 34.5563 28.8909 34.703 28.8511 34.8288C28.6881 35.3673 28.1325 35.818 27.4392 35.818C26.859 35.818 26.3992 35.4876 26.3992 34.7952C26.3992 33.7363 27.5686 33.4449 28.9027 33.4521M34.2194 37.1696V26.896H32.1305V37.1696H34.2194ZM60.8188 26.896V34.476C60.8188 35.5223 61.0151 36.2518 61.4378 36.6989C61.8089 37.0908 62.4162 37.346 63.1393 37.346C63.7602 37.346 64.3675 37.2266 64.6544 37.1225L64.6291 35.4906C64.4146 35.5404 64.1693 35.5829 63.8326 35.5829C63.1194 35.5829 62.8841 35.1313 62.8841 34.1919V31.2902H64.7033V29.327H62.8841V26.896M55.4196 29.4535V37.1729H57.5791V33.2195C57.5791 33.0068 57.5926 32.8231 57.6262 32.6529C57.7873 31.8194 58.4199 31.2917 59.3313 31.2917C59.5856 31.2917 59.7585 31.3198 59.9504 31.3496V29.3259C59.7893 29.2969 59.6798 29.2815 59.4816 29.2815C58.6733 29.2815 57.7574 29.7947 57.3709 30.9125H57.3176V29.4535M35.4325 29.4535V37.1729H37.5367V32.6421C37.5367 32.4294 37.5602 32.2122 37.6354 32.0158C37.8065 31.5569 38.2309 31.0256 38.9124 31.0256C39.7596 31.0256 40.1596 31.7406 40.1596 32.7724V37.1729H42.2585V32.5878C42.2585 32.3878 42.2866 32.1425 42.3454 31.9651C42.5138 31.4447 42.9735 31.0256 43.6089 31.0256C44.4651 31.0256 44.8796 31.7253 44.8796 32.9417V37.1729H46.9766V32.6213C46.9766 30.2301 45.7602 29.2815 44.3791 29.2815C43.7718 29.2815 43.2885 29.4309 42.854 29.6988C42.4866 29.9242 42.1644 30.2418 41.8757 30.6573H41.844C41.5118 29.8264 40.7316 29.2815 39.7125 29.2815C38.4056 29.2815 37.8119 29.9414 37.4625 30.4989H37.4308V29.4535" fill="#0071CE"/>
<path id="Vector_2" d="M76.005 29.1071C76.4177 29.1071 76.7652 28.8916 76.8104 28.6147L77.2195 23.9807C77.2195 23.5218 76.6792 23.1462 76.005 23.1462C75.327 23.1462 74.7903 23.5218 74.7903 23.9807L75.203 28.6147C75.2465 28.8916 75.5922 29.1071 76.005 29.1071ZM73.4949 30.5571C73.6994 30.1951 73.6876 29.7932 73.4668 29.614L69.6474 26.9431C69.2501 26.7114 68.6554 26.9875 68.3151 27.5721C67.9757 28.1559 68.0445 28.8112 68.4337 29.0384L72.6622 30.9988C72.9328 31.1001 73.2867 30.9119 73.4949 30.5535M78.5145 30.5533C78.7307 30.9117 79.0846 31.0999 79.348 31.004L83.5765 29.0382C83.9693 28.8065 84.0282 28.1575 83.696 27.5738C83.3566 26.9891 82.7583 26.7149 82.3619 26.942L78.5416 29.6102C78.3298 29.7921 78.3144 30.1958 78.519 30.5569M76.005 34.8955C76.4177 34.8955 76.7652 35.1109 76.8104 35.3878L77.2195 40.0218C77.2195 40.4807 76.6792 40.8527 76.005 40.8527C75.327 40.8527 74.7903 40.4807 74.7903 40.0218L75.203 35.3878C75.2465 35.1109 75.5922 34.8955 76.005 34.8955ZM78.5145 33.4495C78.7307 33.0902 79.0846 32.8983 79.348 33.0024L83.5765 34.9646C83.9693 35.1918 84.0282 35.8462 83.696 36.4309C83.3566 37.011 82.7583 37.287 82.3619 37.0599L78.5416 34.3881C78.3298 34.208 78.3144 33.8061 78.519 33.4495M73.4949 33.4455C73.6994 33.8067 73.6876 34.2076 73.4668 34.3886L69.6474 37.0559C69.2501 37.2876 68.6554 37.0106 68.3151 36.4305C67.9757 35.8467 68.0445 35.1914 68.4337 34.9642L72.6622 33.0021C72.9328 32.8989 73.2867 33.0889 73.4949 33.4455ZM84.8139 36.6532H84.8665C84.9379 36.6532 84.9669 36.6758 84.9751 36.7329C84.9904 36.7962 84.9986 36.8388 85.0139 36.8569H85.1497C85.138 36.8433 85.1225 36.8089 85.1144 36.7292C85.099 36.6604 85.0637 36.6215 85.0139 36.608V36.5953C85.0827 36.5799 85.1225 36.5337 85.1225 36.4767C85.1225 36.4251 85.099 36.388 85.0755 36.3645C85.0303 36.3428 84.9868 36.3256 84.8909 36.3256C84.8058 36.3256 84.7433 36.3328 84.6936 36.3446V36.8569H84.8139V36.6532ZM84.8175 36.4197L84.8791 36.4116C84.9515 36.4116 84.9904 36.4451 84.9904 36.4921C84.9904 36.5446 84.9379 36.569 84.871 36.569H84.8175V36.4197ZM84.8945 36.0721C84.5976 36.0721 84.3623 36.3039 84.3623 36.588C84.3623 36.8795 84.5977 37.1112 84.8945 37.1112C85.195 37.1112 85.423 36.8795 85.423 36.588C85.423 36.3039 85.195 36.0721 84.8945 36.0721ZM84.8945 36.1763C85.1225 36.1763 85.2918 36.3609 85.2918 36.588C85.2918 36.817 85.1225 37.0071 84.8945 37.0035C84.6664 37.0035 84.4935 36.817 84.4935 36.588C84.4935 36.3609 84.6664 36.1763 84.8909 36.1763" fill="#FCB61A"/>
</g>
</svg>
