<svg width="97" height="64" viewBox="0 0 97 64" fill="none" xmlns="http://www.w3.org/2000/svg">
<g id="Company Logo">
<path id="Vector" d="M43.1788 32.638C43.1788 36.1353 40.4428 38.7124 37.0852 38.7124C33.7275 38.7124 30.9916 36.1353 30.9916 32.638C30.9916 29.1161 33.7275 26.5636 37.0852 26.5636C40.4428 26.5636 43.1788 29.1161 43.1788 32.638ZM40.5113 32.638C40.5113 30.4525 38.9256 28.9572 37.0852 28.9572C35.2448 28.9572 33.6591 30.4525 33.6591 32.638C33.6591 34.8016 35.2448 36.3188 37.0852 36.3188C38.9256 36.3188 40.5113 34.7989 40.5113 32.638Z" fill="#EA4335"/>
<path id="Vector_2" d="M56.3245 32.638C56.3245 36.1353 53.5886 38.7124 50.2309 38.7124C46.8733 38.7124 44.1373 36.1353 44.1373 32.638C44.1373 29.1188 46.8733 26.5636 50.2309 26.5636C53.5886 26.5636 56.3245 29.1161 56.3245 32.638ZM53.657 32.638C53.657 30.4525 52.0713 28.9572 50.2309 28.9572C48.3905 28.9572 46.8048 30.4525 46.8048 32.638C46.8048 34.8016 48.3905 36.3188 50.2309 36.3188C52.0713 36.3188 53.657 34.7989 53.657 32.638Z" fill="#FBBC05"/>
<path id="Vector_3" d="M68.9224 26.9306V37.8361C68.9224 42.322 66.2768 44.1542 63.1492 44.1542C60.2051 44.1542 58.4332 42.1851 57.765 40.5748L60.0874 39.608C60.5009 40.5967 61.5142 41.7634 63.1465 41.7634C65.1485 41.7634 66.3891 40.5282 66.3891 38.2031V37.3294H66.296C65.699 38.0661 64.5487 38.7097 63.0972 38.7097C60.06 38.7097 57.2775 36.0641 57.2775 32.6599C57.2775 29.2311 60.06 26.5636 63.0972 26.5636C64.546 26.5636 65.6962 27.2072 66.296 27.922H66.3891V26.9333H68.9224V26.9306ZM66.5781 32.6599C66.5781 30.521 65.1512 28.9572 63.3355 28.9572C61.4951 28.9572 59.9532 30.521 59.9532 32.6599C59.9532 34.7769 61.4951 36.3188 63.3355 36.3188C65.1512 36.3188 66.5781 34.7769 66.5781 32.6599Z" fill="#4285F4"/>
<path id="Vector_4" d="M73.099 20.5386V38.3401H70.4972V20.5386H73.099Z" fill="#34A853"/>
<path id="Vector_5" d="M83.2376 34.6373L85.3081 36.0176C84.6399 37.0063 83.0295 38.7098 80.247 38.7098C76.7962 38.7098 74.2191 36.0423 74.2191 32.6353C74.2191 29.023 76.8181 26.5609 79.9485 26.5609C83.1007 26.5609 84.6426 29.0696 85.1465 30.4252L85.4231 31.1154L77.3029 34.4785C77.9246 35.6972 78.8913 36.3189 80.247 36.3189C81.6054 36.3189 82.5475 35.6506 83.2376 34.6373ZM76.8647 32.4518L82.2928 30.1979C81.9943 29.4393 81.096 28.9107 80.0388 28.9107C78.6832 28.9107 76.7962 30.1075 76.8647 32.4518Z" fill="#EA4335"/>
<path id="Vector_6" d="M21.1432 31.0578V28.4807H29.8276C29.9125 28.9298 29.9563 29.4611 29.9563 30.0363C29.9563 31.9698 29.4277 34.3607 27.7242 36.0641C26.0673 37.7895 23.9503 38.7097 21.1459 38.7097C15.9479 38.7097 11.5769 34.4757 11.5769 29.2776C11.5769 24.0796 15.9479 19.8456 21.1459 19.8456C24.0215 19.8456 26.0701 20.9739 27.6092 22.4446L25.7907 24.2631C24.687 23.2279 23.1917 22.4227 21.1432 22.4227C17.3473 22.4227 14.3786 25.4818 14.3786 29.2776C14.3786 33.0735 17.3473 36.1326 21.1432 36.1326C23.6053 36.1326 25.0075 35.1439 25.9058 34.2456C26.6342 33.5171 27.1135 32.4764 27.3025 31.0551L21.1432 31.0578Z" fill="#4285F4"/>
</g>
</svg>
