<svg width="97" height="64" viewBox="0 0 97 64" fill="none" xmlns="http://www.w3.org/2000/svg">
<g id="Company Logo">
<g id="Clip path group">
<mask id="mask0_9_13101" style="mask-type:luminance" maskUnits="userSpaceOnUse" x="11" y="23" width="75" height="18">
<g id="a">
<path id="Vector" d="M11.5762 40.4344H85.4226V23.5666H11.5762V40.4344Z" fill="white"/>
</g>
</mask>
<g mask="url(#mask0_9_13101)">
<g id="Group">
<path id="Vector_2" d="M17.4684 36.511C16.2571 36.511 15.1437 36.0962 14.2608 35.4006C15.2873 33.0835 17.3791 29.9748 20.2313 26.9388C21.6874 27.8572 22.6546 29.4788 22.6546 31.3268C22.6546 32.1158 22.4769 32.8642 22.1616 33.5338C21.2569 33.115 20.4131 32.591 19.6972 31.9295L21.2599 34.863C20.3131 35.8774 18.9656 36.511 17.4684 36.511ZM12.2838 31.3268C12.2838 28.4619 14.6045 26.1412 17.4684 26.1412C18.2361 26.1412 18.9636 26.3082 19.6206 26.6068C16.8105 29.0904 14.6345 31.9772 13.3469 34.472C12.6803 33.5983 12.2838 32.5103 12.2838 31.3268ZM22.813 33.812C23.1658 33.0571 23.3618 32.2143 23.3618 31.3268C23.3618 29.2783 22.3165 27.4739 20.7294 26.4179C21.6747 25.4452 22.6977 24.4841 23.7867 23.5656C22.5104 24.3165 21.3112 25.1761 20.2029 26.1047C19.386 25.6762 18.4554 25.4325 17.4684 25.4325C14.2146 25.4325 11.576 28.0725 11.576 31.3268C11.576 32.7956 12.1142 34.141 13.0042 35.1716C11.8751 37.6132 11.6776 39.5739 12.6727 40.237C13.7373 40.9473 16.0535 39.6597 17.4435 37.5629C17.4435 37.5629 15.2939 39.5024 14.113 39.0576C13.3865 38.7824 13.384 37.6711 13.9831 36.0774C14.9599 36.7953 16.1641 37.2192 17.4684 37.2192C19.0834 37.2192 20.5451 36.5704 21.6097 35.5194L21.8189 35.9134C24.3874 35.7047 32.0562 35.5017 32.0562 35.5017C32.0562 35.1336 26.9786 35.4676 22.813 33.812Z" fill="#1D439C"/>
</g>
</g>
</g>
<path id="Vector_3" fill-rule="evenodd" clip-rule="evenodd" d="M57.9724 30.7847L58.9325 29.5094L55.5883 29.5083L56.4123 28.4158H59.7565L60.7191 27.1409H54.0413L49.4476 33.2369H56.1264L57.0855 31.9605H53.7423L54.6262 30.7847H57.9724ZM62.6103 27.141L58.0186 33.2369H61.3501L65.9428 27.141H62.6103ZM73.7114 27.141L71.3841 30.2314L70.6682 27.141H68.0642L63.4715 33.2369H65.6755L67.9835 30.174L68.6922 33.2369H71.3237L75.9173 27.141H73.7114Z" fill="#1D439C"/>
<g id="Clip path group_2">
<mask id="mask1_9_13101" style="mask-type:luminance" maskUnits="userSpaceOnUse" x="4" y="18" width="89" height="29">
<g id="b">
<path id="Vector_4" d="M4.70532 46.2596H92.9095V18.6945H4.70532V46.2596Z" fill="white"/>
</g>
</mask>
<g mask="url(#mask1_9_13101)">
<g id="Group_2">
<path id="Vector_5" d="M84.6058 27.1409L79.2496 27.1399C78.3332 27.1399 77.5204 27.5791 77.0066 28.2599L74.2421 31.929C74.1381 32.0651 74.0777 32.2352 74.0777 32.4195C74.0777 32.8703 74.4427 33.2369 74.8935 33.2369H80.2488C81.1662 33.2369 81.981 32.7972 82.4938 32.1169L83.1579 31.236H83.9316L84.8988 29.9515H80.7966L79.5014 31.6696C79.4338 31.7601 79.346 31.8335 79.245 31.884C79.144 31.9345 79.0325 31.9607 78.9196 31.9605H77.9768C77.8575 31.9605 77.7631 31.8651 77.7631 31.7483C77.7631 31.6996 77.7793 31.6554 77.8067 31.6214L80.003 28.7057C80.1355 28.5285 80.3467 28.4157 80.5848 28.4157H81.5287C81.647 28.4157 81.7414 28.5107 81.7414 28.6275C81.7414 28.6742 81.7241 28.7194 81.6977 28.7559L81.3413 29.2296H84.6698L85.2587 28.4472C85.3608 28.3117 85.4222 28.1426 85.4222 27.9573C85.4222 27.5065 85.0556 27.1409 84.6058 27.1409ZM47.5848 28.7558L45.3875 31.67C45.3199 31.7604 45.2321 31.8338 45.131 31.8842C45.03 31.9346 44.9186 31.9607 44.8057 31.9603H43.8619C43.7456 31.9603 43.6511 31.8654 43.6511 31.7492C43.6511 31.6994 43.6674 31.6552 43.6928 31.6212L45.8891 28.7065C46.0236 28.5313 46.2343 28.4156 46.4714 28.4156H47.4158C47.533 28.4156 47.6275 28.5111 47.6275 28.6273C47.627 28.6735 47.6121 28.7185 47.5848 28.7558ZM51.3083 27.9572C51.3083 27.5068 50.9437 27.1408 50.4919 27.1408H45.1392C44.2218 27.1408 43.408 27.5789 42.8942 28.2597L40.1292 31.9289C40.0262 32.066 39.9658 32.235 39.9658 32.4198C39.9658 32.8702 40.3303 33.2367 40.7811 33.2367H46.1348C47.0533 33.2367 47.8681 32.7971 48.3809 32.1167L51.1453 28.4481C51.2479 28.312 51.3083 28.1425 51.3083 27.9572ZM37.408 28.7558L37.0567 29.2208C36.9231 29.3954 36.7134 29.5092 36.4743 29.5092L35.1061 29.5082L35.9311 28.4156H37.2379C37.3542 28.4156 37.4496 28.5111 37.4496 28.6273C37.4496 28.674 37.4344 28.7192 37.408 28.7558ZM35.6214 31.1242L35.2091 31.671C35.0766 31.8466 34.8664 31.9603 34.6273 31.9603H33.2601L34.145 30.7845H35.4528C35.5696 30.7845 35.6645 30.879 35.6645 30.9962C35.6645 31.045 35.6483 31.0891 35.6214 31.1242ZM38.7143 30.3372C39.3707 30.1895 39.9419 29.8092 40.3333 29.2888L40.9664 28.4481C41.0695 28.312 41.1309 28.1425 41.1309 27.9572C41.1309 27.5068 40.7659 27.1408 40.3151 27.1408H33.5591L28.9664 33.2367H35.9564C36.8749 33.2367 37.6892 32.7971 38.202 32.1167L38.8498 31.2567C38.9336 31.1485 38.9803 31.011 38.9803 30.8648C38.9803 30.648 38.8747 30.4571 38.7143 30.3372Z" fill="#1D439C"/>
</g>
</g>
</g>
</g>
</svg>
