<svg width="97" height="64" viewBox="0 0 97 64" fill="none" xmlns="http://www.w3.org/2000/svg">
<g id="Company Logo">
<path id="Vector" d="M58.825 31.2016C58.5665 31.2854 58.2131 31.3565 57.7742 31.4113C57.5651 31.4386 57.3324 31.4524 57.06 31.4524C56.6026 31.4524 56.1071 31.4159 55.6272 31.3784L55.6106 31.3778C55.166 31.3442 54.7455 31.3127 54.342 31.3127C54.0537 31.3127 53.7895 31.3298 53.5361 31.3622C52.7822 31.4558 52.1877 31.6925 52.1877 31.6925L52.1941 31.6313C52.3402 30.1193 53.6106 28.8285 55.1478 28.6244C55.2918 28.6073 55.4367 28.5987 55.5817 28.5984C57.03 28.5984 58.4346 29.6964 58.852 31.1549L58.8625 31.1927L58.825 31.2016ZM60.5947 31.8435L60.5941 31.8229C60.5875 31.7257 60.569 31.5684 60.5485 31.3994C60.5092 31.094 60.4425 30.7928 60.3493 30.4994C59.6502 28.2942 57.7788 26.8711 55.5817 26.8711C55.3624 26.8711 55.1359 26.885 54.9125 26.9155C52.0948 27.2781 50.1811 29.8317 50.5537 32.729C50.8927 35.3519 53.003 37.1488 55.5712 37.1488C55.7879 37.1488 56.0136 37.1339 56.2415 37.1064C57.6102 36.9325 58.8129 36.3592 59.7139 35.2444C59.7646 35.1809 59.7897 35.0998 59.7803 35.0271C59.7721 34.9625 59.7343 34.9012 59.6662 34.8519C59.5151 34.7432 58.9755 34.4815 58.6821 34.3416C58.5957 34.2983 58.526 34.265 58.4875 34.2457C58.3984 34.1998 58.3347 34.1792 58.2766 34.1792C58.2053 34.1792 58.1377 34.2157 58.072 34.2957C57.491 34.9708 56.756 35.3256 56.0051 35.4242C55.856 35.4424 55.7116 35.4521 55.5712 35.4521C54.2025 35.4521 52.8211 34.5356 52.4201 33.2776L52.4101 33.2448L52.4395 33.2305C52.5106 33.1952 53.1511 32.897 54.1003 32.897C54.218 32.897 54.3379 32.9018 54.455 32.9122C54.7273 32.9337 55.0007 32.969 55.2891 33.0055C55.8214 33.0759 56.3733 33.1489 57.0176 33.1489C57.4143 33.1484 57.8104 33.1203 58.2031 33.0647C59.7699 32.7627 60.3914 32.3233 60.3964 32.3195C60.6175 32.1762 60.6093 32.0577 60.5945 31.8435M85.1381 27.4485C85.1381 27.3169 85.0302 27.211 84.8999 27.211H83.6032C83.4742 27.211 83.3672 27.3169 83.3672 27.4485V36.6683C83.3672 36.7986 83.4742 36.9063 83.6032 36.9063H84.8999C85.0302 36.9063 85.1381 36.7986 85.1381 36.6683V27.4485ZM84.2527 23.9226C83.6081 23.9226 83.0821 24.4489 83.0821 25.0945C83.0821 25.7386 83.6081 26.2637 84.2527 26.2637C84.8989 26.2637 85.4231 25.7386 85.4231 25.0945C85.4231 24.4489 84.8989 23.9226 84.2527 23.9226ZM67.0874 28.6222C68.9251 28.6222 70.3651 30.1346 70.3651 32.0665C70.3651 34.0099 68.9987 35.474 67.1863 35.474C66.2711 35.474 65.4228 35.1458 64.8022 34.5513C64.1618 33.94 63.8105 33.0768 63.8105 32.1244C63.8105 30.1931 65.2804 28.6222 67.0874 28.6222ZM67.0299 37.1519C67.1118 37.1554 67.1967 37.1586 67.2793 37.1586C68.6115 37.1586 69.8495 36.6443 70.7696 35.7173C71.7026 34.7723 72.2148 33.4764 72.2148 32.0665C72.2148 29.1534 69.9721 26.8711 67.1083 26.8711C64.778 26.8711 62.8108 28.4056 62.2093 30.6883C62.107 31.0759 62.0011 32.0642 62.0011 33.0499V40.2841C62.0011 40.416 62.107 40.5234 62.2388 40.5234H63.525C63.6579 40.5234 63.7656 40.4146 63.7656 40.2822L63.7645 35.7251L63.832 35.7908C64.4637 36.4045 65.6353 37.0865 67.0299 37.1519ZM43.9789 28.6222C45.8149 28.6222 47.2555 30.1346 47.2555 32.0665C47.2555 34.0099 45.8896 35.474 44.0756 35.474C43.1582 35.474 42.3138 35.1458 41.6936 34.5513C41.0522 33.94 40.6993 33.0768 40.6993 32.1244C40.6993 30.1931 42.1703 28.6222 43.9789 28.6222ZM43.9218 37.1519C44.0038 37.1554 44.0882 37.1586 44.1693 37.1586C45.5029 37.1586 46.7416 36.6443 47.66 35.7173C48.5931 34.7723 49.107 33.4764 49.107 32.0665C49.107 29.1534 46.8624 26.8711 43.9981 26.8711C41.6687 26.8711 39.6994 28.4056 39.0994 30.6883C38.9951 31.0759 38.8909 32.0642 38.8909 33.0499V40.2841C38.8909 40.416 38.9978 40.5234 39.1264 40.5234H40.4164C40.5487 40.5234 40.6564 40.4146 40.6564 40.2822L40.6543 35.7251L40.7194 35.7908C41.3515 36.4045 42.5231 37.0865 43.9218 37.1519ZM73.4539 35.5369C74.5737 36.5617 75.7971 37.1471 77.3853 37.1471H77.4356C80.1769 37.1294 81.4017 35.631 81.4017 34.1547C81.4017 32.1128 79.4752 31.5547 78.885 31.4309C78.6956 31.394 78.4986 31.3569 78.2966 31.3168C77.8196 31.2249 77.3242 31.1301 76.8741 31.0057C76.5585 30.9191 75.5297 30.5763 75.5297 29.807C75.5297 28.9603 76.4695 28.5037 77.3523 28.5037C78.0939 28.5037 78.7122 28.6286 79.5034 29.2464C79.5652 29.2951 79.652 29.351 79.7579 29.351C79.8361 29.351 79.9111 29.3238 79.9918 29.2661C80.2108 29.1047 80.6117 28.7666 80.8765 28.5018C80.9389 28.4386 80.968 28.3695 80.9643 28.2972C80.9582 28.1849 80.8747 28.093 80.832 28.0576C79.7739 27.2183 78.7556 26.8748 77.3199 26.8711H77.3094C75.2556 26.8711 73.7051 28.1913 73.7051 29.9416C73.7051 31.3286 74.8454 32.3136 76.9121 32.7196L78.2064 32.9676C79.057 33.1238 79.5352 33.5754 79.5186 34.2081C79.5034 34.8246 78.7473 35.463 77.505 35.463C76.491 35.463 75.5978 35.0671 74.8494 34.3879L74.8385 34.3771C74.7856 34.3293 74.7225 34.2708 74.6375 34.2708C74.578 34.2708 74.515 34.2984 74.4471 34.3514C74.3691 34.4148 73.5047 35.0981 73.4126 35.1948C73.3703 35.2402 73.3504 35.2881 73.3513 35.3384C73.3534 35.4183 73.4061 35.4929 73.4539 35.5369Z" fill="#2151A1"/>
<path id="Vector_2" d="M31.7006 40.3357C27.098 44.9394 19.6328 44.9388 15.0304 40.3357C10.4257 35.7315 10.4257 28.2668 15.0304 23.664C19.6338 19.0608 27.098 19.0608 31.6997 23.6645C36.3045 28.2667 36.3045 35.7313 31.7006 40.3357Z" fill="white"/>
<path id="Vector_3" d="M32.5421 26.0511C32.7687 26.7837 32.884 27.5461 32.8841 28.313C32.8841 30.8527 31.6353 33.086 29.7359 34.4853C26.4335 36.9177 21.62 36.921 14.9738 39.0152C16.9797 41.4128 19.9941 42.9388 23.3651 42.9388C29.4068 42.9388 34.3042 38.0414 34.3042 32C34.3042 29.8068 33.655 27.765 32.5421 26.0511Z" fill="#2151A1"/>
<path id="Vector_4" d="M29.9254 23.2476C28.0974 21.8736 25.8265 21.0609 23.3653 21.0609C17.3239 21.0609 12.4266 25.9594 12.4266 32C12.4266 34.4317 13.2199 36.6775 14.5617 38.4935C21.9188 36.3512 27.7279 30.5801 29.9254 23.2476Z" fill="#EB1933"/>
</g>
</svg>
