<svg width="97" height="64" viewBox="0 0 97 64" fill="none" xmlns="http://www.w3.org/2000/svg">
<g id="Company Logo">
<g id="Group">
<path id="a" d="M16.4786 34.2705C16.5802 34.5257 16.548 34.8528 16.4985 35.0511C16.4117 35.4029 16.1738 35.7623 15.4701 35.7623C14.8109 35.7623 14.4094 35.3806 14.4094 34.8057V33.7823H11.577V34.5951C11.577 36.9493 13.4281 37.6605 15.4131 37.6605C17.3212 37.6605 18.8923 37.0112 19.1425 35.2493C19.2714 34.3374 19.1772 33.7402 19.1326 33.5196C18.6866 31.3092 14.682 30.65 14.3822 29.4135C14.3406 29.2311 14.3372 29.0421 14.3723 28.8584C14.4466 28.5189 14.6771 28.1497 15.3362 28.1497C15.9558 28.1497 16.3151 28.5313 16.3151 29.1062V29.7604H18.9493V29.017C18.9493 26.7174 16.885 26.358 15.3932 26.358C13.5149 26.358 11.9809 26.98 11.7009 28.7023C11.6266 29.1731 11.6142 29.5944 11.7257 30.1247C12.1842 32.2806 15.9335 32.9051 16.4786 34.2705Z" fill="#034EA2"/>
<path id="Vector" d="M22.877 26.695L20.9193 37.249H23.7716L25.2163 27.6713H25.2757L26.6808 37.249H29.5182L27.5729 26.6925L22.877 26.695ZM38.8233 26.695L37.5223 34.7635H37.4604L36.1619 26.695H31.8575L31.6245 37.249H34.2661L34.3306 27.7605H34.39L36.1519 37.249H38.8307L40.5951 27.763H40.6521L40.719 37.249H43.3581L43.1252 26.6925L38.8233 26.695Z" fill="#034EA2"/>
<path id="a_2" d="M50.7922 34.2506C50.8938 34.5058 50.8616 34.8329 50.8121 35.0312C50.7253 35.3831 50.4874 35.7424 49.7837 35.7424C49.1245 35.7424 48.723 35.3607 48.723 34.7858V33.7624H45.8906V34.5752C45.8906 36.9294 47.7417 37.6406 49.7267 37.6406C51.6348 37.6406 53.2059 36.9913 53.4561 35.2294C53.585 34.3175 53.4908 33.7203 53.4462 33.4997C53.0002 31.2893 48.9956 30.6301 48.6958 29.3936C48.6542 29.2112 48.6508 29.0222 48.6859 28.8385C48.7602 28.499 48.9907 28.1298 49.6498 28.1298C50.2694 28.1298 50.6287 28.5114 50.6287 29.0863V29.7405H53.2629V28.9971C53.2629 26.6975 51.1986 26.3381 49.7068 26.3381C47.8285 26.3381 46.2945 26.9601 46.0145 28.6824C45.9402 29.1532 45.9278 29.5745 46.0393 30.1048C46.4977 32.2607 50.2471 32.8852 50.7922 34.2506Z" fill="#034EA2"/>
<path id="Vector_2" d="M59.6513 35.668C60.3848 35.668 60.6103 35.1625 60.6623 34.9047C60.6846 34.7907 60.6871 34.6371 60.6871 34.5008V26.6949H63.3585V34.2604C63.359 34.492 63.3507 34.7234 63.3337 34.9543C63.1478 36.9244 61.5916 37.5637 59.6513 37.5637C57.7085 37.5637 56.1523 36.9244 55.9664 34.9543C55.959 34.8502 55.9391 34.4537 55.9416 34.2604V26.6924H58.613V34.4983C58.6105 34.6371 58.6154 34.7907 58.6377 34.9047C58.6873 35.1625 58.9153 35.668 59.6513 35.668ZM72.557 26.6949L72.7007 34.9791H72.6437L70.2152 26.6949H66.2999V37.1375H68.8944L68.7507 28.5659H68.8077L71.4121 37.1375H75.1714V26.6949H72.557ZM81.6639 35.5589C82.4271 35.5589 82.6947 35.0757 82.7418 34.7907C82.7641 34.6743 82.7666 34.5256 82.7666 34.3943V32.8579H81.6837V31.3215H85.4231V34.1514C85.4231 34.3496 85.4181 34.4934 85.3859 34.8453C85.2125 36.7682 83.5447 37.4547 81.6738 37.4547C79.8028 37.4547 78.1376 36.7682 77.9617 34.8453C77.9319 34.4934 77.9245 34.3496 77.9245 34.1514V29.7107C77.9245 29.5224 77.9493 29.1903 77.9691 29.0169C78.2045 27.0419 79.8028 26.4075 81.6738 26.4075C83.5447 26.4075 85.1852 27.0369 85.3785 29.0144C85.4132 29.3514 85.4033 29.7082 85.4033 29.7082V30.0626H82.7418V29.4704C82.7418 29.4704 82.7418 29.2225 82.7096 29.0689C82.66 28.836 82.4618 28.3007 81.654 28.3007C80.8858 28.3007 80.6603 28.8087 80.6033 29.0689C80.571 29.2077 80.5587 29.396 80.5587 29.567V34.3918C80.5587 34.5256 80.5636 34.6743 80.5834 34.7932C80.633 35.0757 80.9006 35.5589 81.6639 35.5589Z" fill="#034EA2"/>
</g>
</g>
</svg>
