<svg width="97" height="64" viewBox="0 0 97 64" fill="none" xmlns="http://www.w3.org/2000/svg">
<g id="Company Logo">
<g id="Clip path group">
<mask id="mask0_9_13128" style="mask-type:luminance" maskUnits="userSpaceOnUse" x="11" y="17" width="75" height="30">
<g id="b">
<path id="Vector" d="M11.5769 17.1569V23.2861H15.7077V40.714H11.6894V46.7694H26.0636V40.714H21.9328V23.2861H25.9511V17.1569H11.5769ZM52.4895 17.2307V23.2861H56.6203V40.714H52.602V46.7694H62.8453V29.9205L68.9492 46.7635L69.0732 46.7664L75.0675 29.9205V46.7694H85.4231V40.714H81.2922V23.2861H85.3106V17.2307H73.7661L68.9863 30.7365L64.1459 17.2307H52.4895Z" fill="white"/>
<path id="a" d="M27.9879 17.2307V23.2861H32.1187V32.8862H48.0186V31.0454C48.0186 31.0454 49.3487 30.0084 49.7725 29.0244L50.6234 27.1151C50.6234 27.1151 51.0187 26.0464 51.0187 25.0913L50.8484 23.182C50.8484 23.182 50.5814 21.6266 50.1157 21.1639L48.4715 19.2517C48.4715 19.2517 46.3792 17.2307 43.608 17.2307H27.9879ZM38.3434 23.2861H44.3983V28.8985H38.3434V23.2861Z" fill="white"/>
<path id="a_2" d="M27.9879 46.7695V40.7141H32.1187V31.114H48.0186V32.9549C48.0186 32.9549 49.3487 33.9918 49.7725 34.9758L50.6234 36.8851C50.6234 36.8851 51.0187 37.9539 51.0187 38.9089L50.8484 40.8182C50.8484 40.8182 50.5814 42.3737 50.1157 42.8363L48.4715 44.7486C48.4715 44.7486 46.3792 46.7695 43.608 46.7695H27.9879ZM38.3434 40.7141H44.3983V35.1017H38.3434V40.7141Z" fill="white"/>
</g>
</mask>
<g mask="url(#mask0_9_13128)">
<path id="Vector_2" d="M11.5769 18.2412H87.6391V22.1722H11.5769M11.5769 26.1032H83.5775V30.035H11.5769V33.9652H83.5775V37.8955H11.5769M11.5769 41.8273H87.6391V45.759H11.5769" stroke="#1F70C1" stroke-width="2.02119"/>
</g>
</g>
</g>
</svg>
