<svg width="97" height="64" viewBox="0 0 97 64" fill="none" xmlns="http://www.w3.org/2000/svg">
<g id="Company Logo">
<path id="Vector" d="M18.2649 33.0212H13.3232V31.7951H19.6953C19.5281 31.2749 18.9894 30.7919 18.0419 30.7919H13.4161C12.3572 30.7919 11.7441 31.182 11.7441 32.0366V32.9469C11.7441 33.69 12.3757 34.1173 13.3046 34.1173H18.302V35.4177H11.5769C11.7441 36.1237 12.2829 36.4952 13.2489 36.4952H18.2834C19.3424 36.4952 19.8625 36.0865 19.8625 35.2134V34.3031C19.8625 33.5042 19.2495 33.077 18.2649 33.0212ZM28.3525 30.8105H22.2591V36.5138H23.9868V34.3217H28.4826C29.7273 34.3217 30.4146 33.8944 30.4146 32.8912V32.2595C30.3961 31.3307 29.6158 30.8105 28.3525 30.8105ZM28.9098 32.6311C28.9098 33.0398 28.8355 33.2627 28.1667 33.2627H23.9868L24.0054 31.7765H28.0924C28.8355 31.7765 28.9284 31.9994 28.9284 32.3896V32.6311H28.9098ZM36.1551 34.2845H32.4768L31.5665 35.2505H36.8797L37.79 36.5138H39.8335L35.4306 30.569L34.3903 31.8508L36.1551 34.2845ZM43.1403 31.7951H49.6053C49.4381 31.1263 48.7879 30.7919 47.8591 30.7919H43.0289C42.1929 30.7919 41.394 31.1263 41.394 32.0366V35.232C41.394 36.1423 42.1929 36.4767 43.0289 36.4767H47.9148C49.0294 36.4767 49.4196 36.1608 49.6053 35.3992H43.1403V31.7951ZM57.185 33.69V32.724H51.9647V36.5138H59.6744V35.4363H53.711V33.69H57.185ZM52.1505 30.8105H59.9345V31.8137H52.1505V30.8105ZM64.7276 30.8105H62.0152L65.2106 33.1513C65.675 32.8354 66.2138 32.501 66.6968 32.2224L64.7276 30.8105ZM68.666 33.7272C68.2016 34.043 67.7371 34.396 67.2913 34.7304L69.7064 36.4952H72.4373L68.666 33.7272Z" fill="black"/>
<path id="Vector_2" d="M85.4231 27.485C70.561 28.3396 63.6872 34.6931 62.1453 36.1979L61.8295 36.4951H64.579C72.01 29.0455 82.6922 27.7265 85.4231 27.485Z" fill="black"/>
</g>
</svg>
