<svg width="97" height="64" viewBox="0 0 97 64" fill="none" xmlns="http://www.w3.org/2000/svg">
<g id="Company Logo">
<g id="g2105">
<path id="path2085" d="M25.2903 36.475L18.6958 33.2996V26.3138L25.2903 36.475ZM25.8146 37.6861L18.6958 34.6806V37.6861H25.8146Z" fill="#98002E"/>
<path id="polyline2087" d="M12.1012 36.475L18.6957 26.3138V33.2996L12.1012 36.475Z" fill="#E31837"/>
<path id="polyline2089" d="M11.5768 37.6861H18.6956V34.6806L11.5768 37.6861Z" fill="#E31837"/>
<path id="path2091" d="M26.3905 35.6036C26.649 35.6036 26.8631 35.8103 26.8631 36.0688C26.8631 36.3273 26.6564 36.5414 26.3979 36.5414C26.1394 36.5414 25.9253 36.3347 25.9253 36.0762C25.9253 35.8103 26.1321 35.6036 26.3905 35.6036ZM26.3905 36.4676C26.6121 36.4676 26.7893 36.2903 26.7893 36.0688C26.7893 35.8473 26.6121 35.67 26.3905 35.67C26.169 35.67 25.9918 35.8473 25.9918 36.0688C25.9918 36.2903 26.169 36.4676 26.3905 36.4676ZM26.2871 36.342H26.2207V35.803H26.4274C26.553 35.803 26.5973 35.8547 26.5973 35.9507C26.6047 36.0319 26.5382 36.0983 26.4644 36.1057L26.6268 36.342H26.553L26.3905 36.1057H26.2945L26.2871 36.342ZM26.2871 36.0393H26.3758C26.4496 36.0393 26.5308 36.0319 26.5308 35.9433C26.5308 35.8768 26.4644 35.8547 26.4127 35.8547H26.2945V36.0393H26.2871Z" fill="#98002E"/>
<g id="g2103">
<path id="path2093" d="M31.3751 36.475H34.5727C37.8662 36.475 39.8231 34.7691 39.8231 31.9408C39.8231 29.1125 37.8662 27.4141 34.5727 27.4141H31.3751V36.475ZM33.3985 28.987H34.5727C36.7068 28.987 37.7776 30.043 37.7776 31.9408C37.7776 33.8387 36.7068 34.8947 34.5727 34.8947H33.3985V28.987Z" fill="#003D79"/>
<path id="polygon2095" d="M50.553 30.9734H46.7056V28.987H51.0551V27.4141H44.6748V36.475H51.1954V34.9021H46.7056V32.5464H50.553V30.9734Z" fill="#003D79"/>
<path id="polygon2097" d="M58.8237 27.4141H56.793V36.475H62.7302V34.9021H58.8237V27.4141Z" fill="#003D79"/>
<path id="polygon2099" d="M65.5289 28.987H68.5714V36.475H70.6095V28.987H73.6594V27.4141H65.5289V28.987Z" fill="#003D79"/>
<path id="path2101" d="M85.423 36.4749H83.3036L82.4175 34.2078H78.7325L77.8464 36.4749H75.8673L79.6556 27.3771H81.7012L85.423 36.4749ZM81.8415 32.6866L80.5787 29.4669L79.3085 32.6866H81.8415Z" fill="#003D79"/>
</g>
</g>
</g>
</svg>
