<svg width="67" height="20" viewBox="0 0 67 20" fill="none" xmlns="http://www.w3.org/2000/svg">
<g id="Dynamic Island">
<path id="Vector" d="M10.303 0.803589H57.1663C62.3084 0.80382 66.4768 4.97293 66.4768 10.1151C66.4768 15.2573 62.3084 19.4254 57.1663 19.4257H10.303C5.16066 19.4257 0.991477 15.2574 0.991455 10.1151C0.991455 5.13359 4.90398 1.06582 9.82349 0.816284L10.303 0.803589Z" fill="#F8FAFC" stroke="#F1F5F9" stroke-width="0.473602"/>
<path id="Vector_2" d="M56.8438 15.3768C59.7471 15.3768 62.1007 13.0232 62.1007 10.1198C62.1007 7.21648 59.7471 4.86285 56.8438 4.86285C53.9404 4.86285 51.5868 7.21648 51.5868 10.1198C51.5868 13.0232 53.9404 15.3768 56.8438 15.3768Z" fill="#E2E8F0"/>
<path id="Vector_3" d="M56.8438 12.9662C58.4158 12.9662 59.6901 11.6918 59.6901 10.1198C59.6901 8.54785 58.4158 7.2735 56.8438 7.2735C55.2718 7.2735 53.9974 8.54785 53.9974 10.1198C53.9974 11.6918 55.2718 12.9662 56.8438 12.9662Z" fill="#CBD5E1"/>
</g>
</svg>
