<svg width="96" height="64" viewBox="0 0 96 64" fill="none" xmlns="http://www.w3.org/2000/svg">
<g id="Company Logo">
<path id="Vector" d="M15.3255 37.4909C15.6376 38.3191 16.0696 39.0272 16.6217 39.6152C17.1739 40.2034 17.8279 40.6534 18.584 40.9655C19.3402 41.2775 20.1623 41.4335 21.0504 41.4335C21.9146 41.4335 22.7247 41.2715 23.4808 40.9474C24.237 40.6233 24.897 40.1673 25.4611 39.5792C26.0252 38.9911 26.4633 38.289 26.7753 37.4729C27.0874 36.6568 27.2434 35.7447 27.2434 34.7365V19.1821H31.0239V44.3859H27.2794V42.0456C26.4393 42.9336 25.4491 43.6178 24.3089 44.0979C23.1687 44.5779 21.9386 44.818 20.6184 44.818C19.2741 44.818 18.02 44.5839 16.8557 44.1158C15.6916 43.6478 14.6834 42.9817 13.8313 42.1176C12.9793 41.2534 12.3071 40.2154 11.815 39.0031C11.3229 37.791 11.0769 36.4408 11.0769 34.9525V19.1821H14.8575V34.7365C14.8575 35.7447 15.0135 36.6628 15.3255 37.4909ZM37.5406 19.1821V28.3635C38.3807 27.5234 39.3529 26.8573 40.4571 26.3652C41.5612 25.8731 42.7614 25.6271 44.0576 25.6271C45.4018 25.6271 46.6619 25.8791 47.8381 26.3831C49.0143 26.8872 50.0344 27.5713 50.8986 28.4355C51.7627 29.2997 52.4469 30.3198 52.9509 31.4959C53.455 32.6722 53.707 33.9204 53.707 35.2406C53.707 36.5607 53.455 37.8029 52.9509 38.967C52.4469 40.1313 51.7627 41.1454 50.8986 42.0095C50.0344 42.8736 49.0143 43.5578 47.8381 44.0618C46.6619 44.5659 45.4018 44.8179 44.0576 44.8179C42.7613 44.8179 41.5552 44.5719 40.4391 44.0798C39.3229 43.5877 38.3447 42.9216 37.5046 42.0815V44.3858H33.9041V19.1821H37.5406ZM37.9546 37.7249C38.2787 38.4931 38.7288 39.1652 39.3049 39.7413C39.881 40.3174 40.5531 40.7735 41.3212 41.1095C42.0893 41.4456 42.9174 41.6136 43.8056 41.6136C44.6698 41.6136 45.4858 41.4456 46.2539 41.1095C47.022 40.7735 47.688 40.3174 48.2523 39.7413C48.8163 39.1653 49.2664 38.4931 49.6024 37.7249C49.9385 36.9568 50.1065 36.1287 50.1065 35.2406C50.1065 34.3524 49.9385 33.5183 49.6024 32.7382C49.2664 31.958 48.8163 31.28 48.2523 30.7039C47.6881 30.1279 47.0221 29.6777 46.2539 29.3537C45.4857 29.0297 44.6697 28.8676 43.8056 28.8676C42.9415 28.8676 42.1253 29.0296 41.3573 29.3537C40.5892 29.6778 39.9171 30.1279 39.3409 30.7039C38.7649 31.28 38.3088 31.958 37.9727 32.7382C37.6367 33.5183 37.4687 34.3524 37.4687 35.2406C37.4686 36.1287 37.6306 36.9568 37.9546 37.7249ZM55.759 31.532C56.239 30.3799 56.8992 29.3657 57.7392 28.4896C58.5793 27.6135 59.5755 26.9234 60.7277 26.4193C61.8799 25.9152 63.1281 25.6633 64.4723 25.6633C65.7925 25.6633 67.0167 25.9033 68.1449 26.3833C69.273 26.8634 70.2451 27.5295 71.0613 28.3817C71.8774 29.2337 72.5136 30.2419 72.9695 31.4061C73.4256 32.5703 73.6536 33.8365 73.6536 35.2047V36.3929H58.7114C58.8315 37.137 59.0716 37.8271 59.4316 38.4631C59.7917 39.0992 60.2417 39.6513 60.7817 40.1194C61.3218 40.5875 61.9339 40.9536 62.618 41.2175C63.3022 41.4816 64.0282 41.6137 64.7964 41.6137C66.9808 41.6137 68.745 40.7135 70.0892 38.9132L72.7176 40.8574C71.8055 42.0816 70.6773 43.0418 69.3332 43.7379C67.9889 44.434 66.4767 44.782 64.7964 44.782C63.4282 44.782 62.1501 44.5419 60.9619 44.0619C59.7737 43.5819 58.7416 42.9097 57.8654 42.0456C56.9893 41.1814 56.2992 40.1673 55.7951 39.0031C55.2911 37.839 55.039 36.5727 55.039 35.2046C55.0388 33.9084 55.279 32.6842 55.759 31.532ZM60.8177 30.1098C59.7976 30.9619 59.1195 32.0961 58.7835 33.5123H69.9812C69.6691 32.0961 69.003 30.9619 67.9828 30.1098C66.9627 29.2577 65.7685 28.8316 64.4003 28.8316C63.0321 28.8316 61.8379 29.2577 60.8177 30.1098ZM80.4585 30.5238C79.6904 31.3639 79.3063 32.5041 79.3063 33.9443V44.386H75.6697V26.0232H79.2702V28.2916C79.7263 27.5474 80.3204 26.9593 81.0525 26.5273C81.7846 26.0951 82.6547 25.8791 83.6629 25.8791H84.9231V29.2636H83.4109C82.2107 29.2637 81.2266 29.6837 80.4585 30.5238Z" fill="#010202"/>
</g>
</svg>
